<svg width="31" height="30" viewBox="0 0 31 30" fill="none" xmlns="http://www.w3.org/2000/svg">
<path fill-rule="evenodd" clip-rule="evenodd" d="M14.9033 18.3377C13.0891 18.3324 11.6108 16.8369 11.6236 15.0197C11.6363 13.1942 13.1251 11.7152 14.9326 11.7324C16.7783 11.7497 18.2453 13.2302 18.2363 15.0662C18.2281 16.8692 16.7258 18.3437 14.9033 18.3377M14.9348 9.93093C12.1126 9.92343 9.81007 12.2184 9.81232 15.0354C9.81382 17.8554 12.1103 20.1437 14.9341 20.1392C17.7458 20.1347 20.0431 17.8457 20.0408 15.0512C20.0386 12.2207 17.7616 9.93768 14.9348 9.93093" fill="white"/>
<path fill-rule="evenodd" clip-rule="evenodd" d="M20.2537 8.54734C19.5967 8.53459 19.0424 9.07084 19.0349 9.72559C19.0267 10.3818 19.5644 10.9301 20.2237 10.9368C20.8852 10.9443 21.4394 10.4058 21.4394 9.75709C21.4387 9.08584 20.9234 8.56009 20.2537 8.54734" fill="white"/>
<path fill-rule="evenodd" clip-rule="evenodd" d="M22.9849 19.4173C22.9264 20.6 22.5319 21.65 21.5164 22.3745C20.7911 22.8928 19.9519 23.0788 19.0909 23.0863C16.3121 23.1095 13.5319 23.1163 10.7524 23.0825C9.59137 23.0683 8.51287 22.751 7.72012 21.806C7.18387 21.1648 6.91837 20.4103 6.89062 19.6003C6.82462 17.663 6.79087 15.7235 6.77962 13.7848C6.77287 12.7198 6.79387 11.6518 6.88087 10.5913C7.06987 8.30301 8.36662 7.04376 10.6954 6.99426C13.5056 6.93351 16.3181 6.96201 19.1291 6.98751C19.9894 6.99576 20.8249 7.19076 21.5471 7.71876C22.5251 8.43276 22.9174 9.44976 22.9789 10.5958C23.0576 12.074 23.0659 13.5568 23.1041 15.0028C23.0659 16.4983 23.0561 17.9593 22.9849 19.4173M15.0004 -0.000244141C6.71587 -0.000244141 0.000366211 6.71526 0.000366211 14.9998C0.000366211 23.2843 6.71587 29.9998 15.0004 29.9998C23.2841 29.9998 30.0004 23.2843 30.0004 14.9998C30.0004 6.71526 23.2841 -0.000244141 15.0004 -0.000244141" fill="white"/>
</svg>
