<svg width="248" height="60" viewBox="0 0 248 60" fill="none" xmlns="http://www.w3.org/2000/svg">
<path fill-rule="evenodd" clip-rule="evenodd" d="M64.2239 9L41.2233 26.574L42.0696 16.5063L20.7091 32.8664L23.4582 20.072L0.0164188 42.4654L0 42.8414L12.6728 36.2218L11.8033 49L33.187 32.6565L32.764 42.9338L64.2424 19.0574L64.2242 9H64.2239Z" fill="#03C895"/>
<path d="M108.843 19.216L100.907 42H99.1791L92.3311 22.384L85.4511 42H83.7551L75.8191 19.216H77.8031L84.6511 39.248L91.5631 19.216L93.1311 19.248L100.011 39.184L106.859 19.216H108.843ZM124.415 25.968V42H122.463V38.928C121.994 39.9947 121.279 40.816 120.319 41.392C119.381 41.9467 118.25 42.224 116.927 42.224C115.498 42.224 114.239 41.8933 113.151 41.232C112.085 40.5493 111.253 39.5893 110.655 38.352C110.079 37.0933 109.791 35.632 109.791 33.968C109.791 32.304 110.09 30.8427 110.687 29.584C111.285 28.304 112.117 27.3227 113.183 26.64C114.271 25.936 115.519 25.584 116.927 25.584C118.229 25.584 119.349 25.8613 120.287 26.416C121.247 26.9707 121.973 27.7813 122.463 28.848V25.968H124.415ZM117.215 40.496C118.879 40.496 120.17 39.92 121.087 38.768C122.005 37.616 122.463 35.9947 122.463 33.904C122.463 31.792 122.005 30.16 121.087 29.008C120.17 27.856 118.869 27.28 117.183 27.28C115.498 27.28 114.186 27.8773 113.247 29.072C112.309 30.2453 111.839 31.8773 111.839 33.968C111.839 36.0373 112.309 37.648 113.247 38.8C114.186 39.9307 115.509 40.496 117.215 40.496ZM129.622 25.968H131.542V42H129.622V25.968ZM131.926 19.344V21.84H129.334V19.344H131.926ZM150.403 25.968L143.523 42H141.507L134.723 25.968H136.803L142.595 40.048L148.419 25.968H150.403ZM154.383 33.744V33.84C154.383 35.9947 154.874 37.648 155.855 38.8C156.858 39.9307 158.308 40.496 160.207 40.496C162.127 40.496 163.887 39.8347 165.487 38.512L166.255 40.048C165.551 40.7093 164.655 41.2427 163.567 41.648C162.479 42.032 161.359 42.224 160.207 42.224C157.775 42.224 155.855 41.488 154.447 40.016C153.039 38.544 152.335 36.5173 152.335 33.936C152.335 32.2933 152.644 30.8427 153.263 29.584C153.903 28.304 154.788 27.3227 155.919 26.64C157.05 25.936 158.351 25.584 159.823 25.584C161.935 25.584 163.578 26.2667 164.751 27.632C165.946 28.9973 166.543 30.896 166.543 33.328V33.744H154.383ZM159.823 27.184C158.351 27.184 157.156 27.632 156.239 28.528C155.322 29.4027 154.746 30.64 154.511 32.24H164.687C164.559 30.5973 164.079 29.3493 163.247 28.496C162.415 27.6213 161.274 27.184 159.823 27.184ZM202.218 19.216L194.282 42H192.554L185.706 22.384L178.826 42H177.13L169.194 19.216H171.178L178.026 39.248L184.938 19.216L186.506 19.248L193.386 39.184L200.234 19.216H202.218ZM210.558 42.224C209.086 42.224 207.785 41.8827 206.654 41.2C205.545 40.5173 204.681 39.5467 204.062 38.288C203.465 37.0293 203.166 35.568 203.166 33.904C203.166 32.24 203.465 30.7787 204.062 29.52C204.681 28.2613 205.545 27.2907 206.654 26.608C207.785 25.9253 209.086 25.584 210.558 25.584C212.009 25.584 213.289 25.9253 214.398 26.608C215.508 27.2907 216.361 28.2613 216.958 29.52C217.577 30.7787 217.886 32.24 217.886 33.904C217.886 35.568 217.577 37.0293 216.958 38.288C216.361 39.5467 215.508 40.5173 214.398 41.2C213.289 41.8827 212.009 42.224 210.558 42.224ZM210.526 40.496C212.233 40.496 213.545 39.9307 214.462 38.8C215.401 37.648 215.87 36.016 215.87 33.904C215.87 31.8133 215.401 30.192 214.462 29.04C213.524 27.8667 212.222 27.28 210.558 27.28C208.873 27.28 207.561 27.8667 206.622 29.04C205.684 30.192 205.214 31.8133 205.214 33.904C205.214 36.0373 205.673 37.6693 206.59 38.8C207.508 39.9307 208.82 40.496 210.526 40.496ZM228.971 25.584C229.504 25.584 229.974 25.6267 230.379 25.712L230.283 27.472C229.878 27.3867 229.387 27.344 228.811 27.344C227.19 27.344 225.974 27.8667 225.163 28.912C224.374 29.936 223.979 31.1627 223.979 32.592V42H222.059V30.416C222.059 28.752 221.974 27.2693 221.803 25.968H223.659L223.915 28.944C224.32 27.856 224.971 27.024 225.867 26.448C226.784 25.872 227.819 25.584 228.971 25.584ZM243.867 42L235.035 34.192V42H233.115V18.448H235.035V33.424L243.099 25.968H245.627L237.243 33.68L246.523 42H243.867Z" fill="white"/>
</svg>
