<svg width="120" height="120" viewBox="0 0 120 120" fill="none" xmlns="http://www.w3.org/2000/svg">
<path d="M60 120C93.1371 120 120 93.1371 120 60C120 26.8629 93.1371 0 60 0C26.8629 0 0 26.8629 0 60C0 93.1371 26.8629 120 60 120Z" fill="url(#paint0_linear)"/>
<mask id="mask0" mask-type="alpha" maskUnits="userSpaceOnUse" x="0" y="0" width="120" height="120">
<path d="M60 120C93.1371 120 120 93.1371 120 60C120 26.8629 93.1371 0 60 0C26.8629 0 0 26.8629 0 60C0 93.1371 26.8629 120 60 120Z" fill="white"/>
</mask>
<g mask="url(#mask0)">
<path fill-rule="evenodd" clip-rule="evenodd" d="M45 33.2651C45 24.8479 51.8486 18 60.2658 18C68.6822 18 75.5292 24.8479 75.5292 33.2651C75.5292 41.6822 68.6822 48.5301 60.2658 48.5301C51.8486 48.5301 45 41.6822 45 33.2651Z" stroke="white" stroke-width="2"/>
<path fill-rule="evenodd" clip-rule="evenodd" d="M60.2517 39.5947C58.8083 39.5947 57.6356 38.4212 57.6356 36.9786H56C56 39.0427 57.4794 40.765 59.4339 41.1477V44.127H61.0695V41.1477C63.0232 40.765 64.5026 39.0427 64.5026 36.9786C64.5026 34.634 62.5955 32.7269 60.2517 32.7269C58.8083 32.7269 57.6356 31.5533 57.6356 30.1099C57.6356 28.6673 58.8083 27.4938 60.2517 27.4938C61.6943 27.4938 62.867 28.6673 62.867 30.1099H64.5026C64.5026 28.0458 63.0232 26.3235 61.0695 25.9408V23H59.4339V25.9408C57.4794 26.3235 56 28.0458 56 30.1099C56 32.4545 57.9071 34.3625 60.2517 34.3625C61.6943 34.3625 62.867 35.536 62.867 36.9786C62.867 38.4212 61.6943 39.5947 60.2517 39.5947" fill="white"/>
<path fill-rule="evenodd" clip-rule="evenodd" d="M85.0825 58.4159C83.6458 58.0659 82.3762 59.3354 82.7272 60.7721C82.8917 61.4476 83.4447 62.0014 84.1201 62.165C85.556 62.5133 86.8228 61.2465 86.4745 59.8097C86.3118 59.1343 85.758 58.5804 85.0825 58.4159" fill="white"/>
<mask id="mask1" mask-type="alpha" maskUnits="userSpaceOnUse" x="25" y="41" width="75" height="60">
<path fill-rule="evenodd" clip-rule="evenodd" d="M25.5741 41.983H99.2168V100.543H25.5741V41.983Z" fill="white"/>
</mask>
<g mask="url(#mask1)">
<path fill-rule="evenodd" clip-rule="evenodd" d="M85.6216 63.9158C82.7626 64.6735 80.2163 62.1262 80.9749 59.2682C81.3085 58.0124 82.3239 56.9979 83.5797 56.6643C86.4378 55.9066 88.985 58.4538 88.2264 61.3118C87.8919 62.5677 86.8765 63.5831 85.6216 63.9158M92.4435 61.2488C89.2665 55.01 87.9303 53.6865 87.2082 53.0413C86.8637 52.7323 86.8152 52.215 87.0803 51.8366C87.8599 50.7207 89.4575 47.944 90.2006 41.983C82.4418 42.9756 80.0783 45.1655 79.1862 46.1663C78.9148 46.4707 78.477 46.552 78.1114 46.3701C77.6444 46.1371 76.9516 45.8035 75.9599 45.3894C75.5806 45.2313 75.1455 45.3474 74.8878 45.6673C72.8771 48.167 70.2585 50.1531 67.2469 51.3888H72.3159V53.2167H47.7481V51.3888H52.8171C49.7516 50.1321 47.0937 48.0957 45.0683 45.5338C44.8143 45.2112 44.3792 45.0832 43.999 45.2377C32.7662 49.8259 25.5741 59.0415 25.5741 69.0395C25.5741 82.7529 38.3424 90.0684 40.7617 91.3607C41.0121 91.4951 41.1821 91.7345 41.2287 92.0142L42.522 99.7785C42.5951 100.22 42.9762 100.543 43.4232 100.543H49.3896C49.8302 100.543 50.2076 100.229 50.2881 99.7967L51.0065 95.9462C51.0988 95.4535 51.564 95.1254 52.0575 95.2131C54.1496 95.5815 59.6436 96.383 66.0259 95.4471L66.8914 95.3201L67.7487 99.8013C67.831 100.231 68.2075 100.543 68.6472 100.543H74.6145C75.0606 100.543 75.4417 100.221 75.5157 99.7812L76.7715 92.3387L77.2075 92.1358C88.3123 86.9572 91.6867 78.9379 92.4627 76.8943C92.5769 76.5954 92.8365 76.3806 93.1509 76.3212L98.4694 75.3368C98.9026 75.2564 99.217 74.8789 99.217 74.4384V63.6334C99.217 63.1928 98.9026 62.8153 98.4694 62.7349L93.0943 61.7387C92.8146 61.6875 92.5715 61.501 92.4435 61.2488" fill="white"/>
</g>
<path d="M16.1575 72.5102C17.3438 72.9462 18.5777 73.1564 19.8033 73.1564C22.0088 73.1564 24.1795 72.4618 25.9955 71.1658" stroke="white"/>
</g>
<defs>
<linearGradient id="paint0_linear" x1="-58.4747" y1="59.7949" x2="59.7949" y2="178.065" gradientUnits="userSpaceOnUse">
<stop stop-color="#03C895"/>
<stop offset="1" stop-color="#0B9BD0"/>
</linearGradient>
</defs>
</svg>
