<svg width="120" height="120" viewBox="0 0 120 120" fill="none" xmlns="http://www.w3.org/2000/svg">
<path d="M60 120C93.1371 120 120 93.1371 120 60C120 26.8629 93.1371 0 60 0C26.8629 0 0 26.8629 0 60C0 93.1371 26.8629 120 60 120Z" fill="url(#paint0_linear)"/>
<mask id="mask0" mask-type="alpha" maskUnits="userSpaceOnUse" x="0" y="0" width="120" height="120">
<path d="M60 120C93.1371 120 120 93.1371 120 60C120 26.8629 93.1371 0 60 0C26.8629 0 0 26.8629 0 60C0 93.1371 26.8629 120 60 120Z" fill="white"/>
</mask>
<g mask="url(#mask0)">
<path fill-rule="evenodd" clip-rule="evenodd" d="M96.997 42H80.1111L75 53H96.7772C96.9752 49.3835 97.0122 45.6591 96.997 42" fill="white"/>
<path fill-rule="evenodd" clip-rule="evenodd" d="M44.192 41.6185L46.9656 44.6915L45.8344 45.9448L44 43.9124V45.8376L46.9656 49.1233L45.8344 50.3766L44 48.3442V50.2694L46.9656 53.5552L45.8344 54.8085L44 52.776V54.7012L46.9656 57.987L45.8344 59.2403L44 57.2079V59.133L46.9656 62.4188L45.8344 63.6721L44 61.6397V63.5649L46.9656 66.8506L45.8344 68.1039L44 66.0715V67.9967L46.9656 71.2824L45.8344 72.5358L44 70.5033V72.4285L46.9656 75.7143L45.8344 76.9676L44 74.9351V76.3409C44 77.8095 45.0745 79 46.4 79H48V40H46.4C45.4377 40.0003 44.5686 40.6373 44.192 41.6185" fill="white"/>
<mask id="mask1" mask-type="alpha" maskUnits="userSpaceOnUse" x="27" y="20" width="70" height="86">
<path fill-rule="evenodd" clip-rule="evenodd" d="M27 106H97V20H27V106Z" fill="white"/>
</mask>
<g mask="url(#mask1)">
<path fill-rule="evenodd" clip-rule="evenodd" d="M49 79H51V40H49V79Z" fill="white"/>
<path fill-rule="evenodd" clip-rule="evenodd" d="M59.2383 77.1284C59.2354 79.577 57.3209 81.5613 54.9583 81.5642H46.3984C44.0358 81.5613 42.1212 79.577 42.1184 77.1284V43.4165C42.1212 40.9679 44.0358 38.9837 46.3984 38.9808H54.9583C57.3209 38.9837 59.2354 40.9679 59.2383 43.4165V77.1284ZM75.612 79.7534C75.612 81.0202 74.5778 82.0921 73.3555 82.0921H67.056C65.8337 82.0921 64.7995 81.0202 64.7995 79.7534C64.7995 69.4242 62.637 63.4801 69.1245 56.0743C63.8593 54.9049 63.8593 55.0998 63.8593 50.4225H72.3213L77.6805 39.5086H97C96.971 36.5322 96.9265 33.6307 96.9265 30.8998C88.6485 29.3244 80.5108 26.9355 74.8599 20H49.1664C43.4329 26.9355 35.4522 29.2987 27.0997 30.8998C27.0997 40.9092 26.4967 53.1876 28.2564 63.0942C31.9162 83.7208 43.9534 97.3264 62.0131 106C75.8459 99.3495 86.1468 89.8108 91.8537 76.4403H75.612V79.7534Z" fill="white"/>
<path fill-rule="evenodd" clip-rule="evenodd" d="M55.0344 44.6915L57.808 41.6185C57.4314 40.6374 56.5623 40.0003 55.6 40H54V79H55.6C56.9255 79 58 77.8095 58 76.3409V74.9352L56.1656 76.9676L55.0344 75.7143L58 72.4285V70.5033L56.1656 72.5358L55.0344 71.2825L58 67.9967V66.0715L56.1656 68.104L55.0344 66.8506L58 63.5649V61.6397L56.1656 63.6721L55.0344 62.4188L58 59.133V57.2079L56.1656 59.2403L55.0344 57.987L58 54.7012V52.776L56.1656 54.8085L55.0344 53.5552L58 50.2694V48.3442L56.1656 50.3767L55.0344 49.1234L58 45.8376V43.9124L56.1656 45.9448L55.0344 44.6915Z" fill="white"/>
<path fill-rule="evenodd" clip-rule="evenodd" d="M68.0224 62.9044C68.0224 64.5236 67.6419 67 70.0199 67H79.3418C80.2777 67 80.7035 66.5658 80.8965 65.9751C81.2298 64.9545 80.7332 63.8466 79.766 63.3828C76.3704 61.7548 68.0224 59.2034 68.0224 62.9044" fill="white"/>
</g>
</g>
<defs>
<linearGradient id="paint0_linear" x1="-58.4747" y1="59.7949" x2="59.7949" y2="178.065" gradientUnits="userSpaceOnUse">
<stop stop-color="#03C895"/>
<stop offset="1" stop-color="#0B9BD0"/>
</linearGradient>
</defs>
</svg>
