<svg width="30" height="30" viewBox="0 0 30 30" fill="none" xmlns="http://www.w3.org/2000/svg">
<path id="User-icon" fill-rule="evenodd" clip-rule="evenodd" d="M15 30C23.2843 30 30 23.2843 30 15C30 6.71573 23.2843 0 15 0C6.71573 0 0 6.71573 0 15C0 23.2843 6.71573 30 15 30ZM8.65385 19.6795C8.65385 17.5 13.0686 16.3013 15.2759 16.3013C17.4833 16.3013 21.898 17.5 21.898 19.6795V20.7692H8.65385V19.6795ZM15.2759 14.6154C17.1522 14.6154 18.587 13.1987 18.587 11.3462C18.587 9.49359 17.1522 8.07692 15.2759 8.07692C13.3997 8.07692 11.9649 9.49359 11.9649 11.3462C11.9649 13.1987 13.3997 14.6154 15.2759 14.6154Z" fill="white"/>
</svg>
