<svg width="30" height="30" viewBox="0 0 30 30" fill="none" xmlns="http://www.w3.org/2000/svg">
<path fill-rule="evenodd" clip-rule="evenodd" d="M0 15.0465C0 22.797 5.84325 29.1773 13.353 30V19.6957H9.864V15.6427H13.353V12.6547C13.353 9.18675 15.4635 7.299 18.5475 7.299C20.025 7.299 21.2948 7.40925 21.6653 7.45875V11.0828L19.5263 11.0835C17.8493 11.0835 17.5238 11.883 17.5238 13.0553V15.6427H21.5243L21.003 19.6957H17.5238V29.8762C24.606 28.6717 30 22.4925 30 15.0465C30 6.7365 23.2837 0 15 0C6.7155 0 0 6.7365 0 15.0465Z" fill="white"/>
</svg>
