<svg width="120" height="120" viewBox="0 0 120 120" fill="none" xmlns="http://www.w3.org/2000/svg">
<path d="M60 120C93.1371 120 120 93.1371 120 60C120 26.8629 93.1371 0 60 0C26.8629 0 0 26.8629 0 60C0 93.1371 26.8629 120 60 120Z" fill="url(#paint0_linear)"/>
<mask id="mask0" mask-type="alpha" maskUnits="userSpaceOnUse" x="0" y="0" width="120" height="120">
<path d="M60 120C93.1371 120 120 93.1371 120 60C120 26.8629 93.1371 0 60 0C26.8629 0 0 26.8629 0 60C0 93.1371 26.8629 120 60 120Z" fill="white"/>
</mask>
<g mask="url(#mask0)">
<path fill-rule="evenodd" clip-rule="evenodd" d="M88 81C88 86.5233 83.5233 91 78 91C72.4767 91 68 86.5233 68 81C68 75.4767 72.4767 71 78 71C83.5233 71 88 75.4767 88 81Z" fill="white"/>
<path fill-rule="evenodd" clip-rule="evenodd" d="M84 81C84 84.314 81.314 87 78 87C74.686 87 72 84.314 72 81C72 77.686 74.686 75 78 75C81.314 75 84 77.686 84 81Z" fill="#08A9BD"/>
<mask id="mask1" mask-type="alpha" maskUnits="userSpaceOnUse" x="-41" y="43" width="146" height="44">
<path fill-rule="evenodd" clip-rule="evenodd" d="M-41 43.4418H104.997V86.8519H-41V43.4418Z" fill="white"/>
</mask>
<g mask="url(#mask1)">
<path fill-rule="evenodd" clip-rule="evenodd" d="M55.0244 58.1794L58.0141 50.8186C61.9188 52.7914 65.1373 55.304 67.4084 58.1794H55.0244ZM36.338 58.1794L38.4306 46.193C44.7849 46.3525 50.6914 47.621 55.6846 49.7323L52.2552 58.1794H36.338ZM32.9816 58.1794H6.80381C12.1263 51.4262 22.7048 46.6926 35.0694 46.2172L32.9816 58.1794ZM101.344 61.759C100.724 58.7096 98.9347 57.9408 96.0925 57.4073C92.3355 56.703 88.679 55.9391 85.042 54.7254C77.6138 52.2466 70.5588 48.7653 63.0641 46.475C56.5493 44.4862 48.9881 43.5207 41.5502 43.4418L32.7172 43.7883C30.6391 43.9753 28.5935 44.209 26.6468 44.5426C20.9042 45.5273 15.4762 47.7467 10.3759 50.5027C5.97323 52.8816 1.43101 57.2994 -3.42268 58.4662C-11.6328 60.439 -20.2078 59.5509 -28.3595 62.2538C-33.304 63.8929 -37.6937 67.0116 -39.6469 71.9531C-41.1929 75.8616 -42.1143 82.1312 -38.4205 85.1886C-36.2808 86.9566 -33.33 86.7536 -29.0019 86.8519C-30.2721 84.415 -30.7879 81.5268 -30.1845 78.4806C-29.1965 73.4859 -25.141 69.4646 -20.104 68.5298C-11.9491 67.018 -4.83564 73.1909 -4.83564 81.0174C-4.83564 83.1062 -5.35312 85.0725 -6.25021 86.8116C-5.35961 86.8164 -4.43819 86.8213 -3.45837 86.8277C-1.60255 86.8406 61.6868 86.7922 65.3595 86.5537C65.8657 86.5231 66.3248 86.4828 66.8033 86.4457C65.6515 84.0298 65.2168 81.2109 65.8722 78.234C66.9558 73.3199 71.0033 69.4034 75.9867 68.5121C84.1027 67.0616 91.1626 73.2199 91.1626 81.0158C91.1626 81.9748 91.0474 82.9064 90.8463 83.8025C90.8836 83.8106 90.9193 83.8122 90.9566 83.8186C91.38 83.8847 95.1241 84.481 99.4911 83.2722C102.77 82.3648 103.634 81.2044 103.895 80.8111C107.111 75.9679 102.366 66.7892 101.344 61.759V61.759Z" fill="white"/>
</g>
<path d="M66.5758 41.4H22.2242C21.2205 41.4 20.4 40.5673 20.4 39.5486V29.2514C20.4 28.2328 21.2205 27.4 22.2242 27.4H66.5758C67.5795 27.4 68.4 28.2328 68.4 29.2514V39.5486C68.4 40.5673 67.5795 41.4 66.5758 41.4" stroke="white" stroke-width="2"/>
<path fill-rule="evenodd" clip-rule="evenodd" d="M53 44.4242L53.9976 41.787H56.494L57 45.0001L53 44.4242Z" fill="white"/>
<path fill-rule="evenodd" clip-rule="evenodd" d="M36 43.7508L33 43.929L33.723 41.787H35.6534L36 43.7508Z" fill="white"/>
</g>
<defs>
<linearGradient id="paint0_linear" x1="-58.4747" y1="59.7949" x2="59.7949" y2="178.065" gradientUnits="userSpaceOnUse">
<stop stop-color="#03C895"/>
<stop offset="1" stop-color="#0B9BD0"/>
</linearGradient>
</defs>
</svg>
