<svg width="120" height="120" viewBox="0 0 120 120" fill="none" xmlns="http://www.w3.org/2000/svg">
<path d="M60 120C93.1371 120 120 93.1371 120 60C120 26.8629 93.1371 0 60 0C26.8629 0 0 26.8629 0 60C0 93.1371 26.8629 120 60 120Z" fill="url(#paint0_linear)"/>
<mask id="mask0" mask-type="alpha" maskUnits="userSpaceOnUse" x="0" y="0" width="120" height="120">
<path d="M60 120C93.1371 120 120 93.1371 120 60C120 26.8629 93.1371 0 60 0C26.8629 0 0 26.8629 0 60C0 93.1371 26.8629 120 60 120Z" fill="white"/>
</mask>
<g mask="url(#mask0)">
<path fill-rule="evenodd" clip-rule="evenodd" d="M72.25 69.3267C74.5 72.6535 76.4987 76.1188 77.875 80L82 78.0594C80.375 73.901 78.1237 70.0198 75.5 66.4158C75.375 66.2772 75.2488 66.1386 75.125 66L72 68.9109C72 69.1881 72.1238 69.1881 72.25 69.3267" fill="white"/>
<path fill-rule="evenodd" clip-rule="evenodd" d="M-1.90909 89.6327C-1.42424 85.8367 -0.454545 82.1633 1 78.6122L-0.333333 78C-1.66667 81.6735 -2.63636 85.5918 -3 89.5102V89.8776L-1.90909 90V89.6327Z" fill="white"/>
<path fill-rule="evenodd" clip-rule="evenodd" d="M56.583 57L58 53.2857C56.713 52.7143 55.426 52.1429 54.139 51.7143C51.1776 50.8571 48.2175 50.2857 45.2574 50L45 53.5714C47.704 53.8571 50.5341 54.5714 53.1081 55.4286C54.2664 56 55.426 56.5714 56.583 57" fill="white"/>
<path fill-rule="evenodd" clip-rule="evenodd" d="M7.26087 68.5C8.17391 67.4091 9.08696 66.4545 10 65.5L8.56522 64C7.65217 65.0909 6.6087 66.0455 5.82609 67.2727C4 69.7273 2.43478 72.3182 1 75.1818L2.43478 76C3.73913 73.2727 5.43478 70.8182 7.26087 68.5" fill="white"/>
<path fill-rule="evenodd" clip-rule="evenodd" d="M28.1818 54.8649C31.9899 53.7838 36.0606 53.2432 40 53.2432V50C35.6667 50.1351 31.4646 50.8108 27.3939 52.1622C27.2626 52.1622 27.1313 52.2973 27 52.2973L27.7879 55C27.9192 55 28.0505 54.8649 28.1818 54.8649" fill="white"/>
<path fill-rule="evenodd" clip-rule="evenodd" d="M25 56.1493L23.9677 54C21.3871 55.0746 18.9355 56.2687 16.6129 57.7015C15.3226 58.5373 14.1613 59.4925 13 60.4478L14.4194 62C15.7097 61.0448 16.871 60.3284 18.0323 59.4925C20.2258 58.1791 22.5484 57.1045 25 56.1493Z" fill="white"/>
<path fill-rule="evenodd" clip-rule="evenodd" d="M75.8211 113.421C73.9263 117.067 71.6526 120.29 69 123.234L73.2947 128C76.2 124.495 78.8514 120.571 80.8737 116.366C80.8737 116.224 81 116.084 81 116.084L75.9474 113C75.9474 113.14 75.8211 113.28 75.8211 113.421" fill="white"/>
<path fill-rule="evenodd" clip-rule="evenodd" d="M80.4118 103.267C79.9051 105.8 79.0148 108.333 78 110.733L83.0802 113C84.0949 110.2 84.9852 107.267 85.492 104.333C85.746 102.733 85.873 101.133 86 99.5333L80.9198 99C80.9198 100.467 80.6658 101.933 80.4118 103.267" fill="white"/>
<path fill-rule="evenodd" clip-rule="evenodd" d="M80.5849 92.0583C80.717 93.4175 80.717 94.6408 80.717 96H86C86 94.5049 85.8679 93.0097 85.7345 91.5146C85.3396 88.2524 84.6792 85.1262 83.6226 82L79 83.4951C79.7911 86.3495 80.3208 89.2039 80.5849 92.0583" fill="white"/>
<path fill-rule="evenodd" clip-rule="evenodd" d="M45.4197 101.889C43.9154 104.393 40.6418 105.209 38.1435 103.702C35.6452 102.194 34.8314 98.9126 36.3344 96.408C37.8373 93.9034 41.1123 93.0876 43.6106 94.5944C46.1089 96.1024 46.9227 99.3842 45.4197 101.889V101.889ZM68.55 54.5904L68.8919 54.0204C69.096 53.679 69.0059 53.3149 68.6653 53.1089C68.3247 52.903 67.9615 52.9947 67.7561 53.3362L42.7968 91.3125C39.5245 90.5791 35.9765 91.8506 34.1316 94.9239C31.8772 98.6814 33.0978 103.605 36.846 105.866C40.5928 108.126 45.5032 106.902 47.759 103.144C49.6039 100.071 49.1321 96.2193 46.8843 93.7785L68.55 54.5904Z" fill="white"/>
<mask id="mask1" mask-type="alpha" maskUnits="userSpaceOnUse" x="85" y="45" width="25" height="36">
<path fill-rule="evenodd" clip-rule="evenodd" d="M85 45H110V81H85V45Z" fill="white"/>
</mask>
<g mask="url(#mask1)">
<path fill-rule="evenodd" clip-rule="evenodd" d="M90.2296 57.6C90.2296 53.4857 93.5472 50.2714 97.5 50.2714C101.455 50.2714 104.77 53.6143 104.77 57.6C104.77 61.7143 101.455 64.9286 97.5 64.9286C93.5472 64.9286 90.2296 61.7143 90.2296 57.6M110 57.6C110 50.6571 104.389 45 97.5 45C90.6135 45 85 50.6571 85 57.6C85 64.5429 97.5 81 97.5 81C97.5 81 110 64.6714 110 57.6" fill="white"/>
</g>
<mask id="mask2" mask-type="alpha" maskUnits="userSpaceOnUse" x="34" y="14" width="20" height="28">
<path fill-rule="evenodd" clip-rule="evenodd" d="M34 14.0001H53.5996V42H34V14.0001Z" fill="white"/>
</mask>
<g mask="url(#mask2)">
<path fill-rule="evenodd" clip-rule="evenodd" d="M38.0996 23.8001C38.0996 20.6001 40.7006 18.1001 43.7996 18.1001C46.9006 18.1001 49.4996 20.7001 49.4996 23.8001C49.4996 27.0001 46.9006 29.5001 43.7996 29.5001C40.7006 29.5001 38.0996 27.0001 38.0996 23.8001M53.5996 23.8001C53.5996 18.4001 49.2006 14.0001 43.7996 14.0001C38.4006 14.0001 33.9996 18.4001 33.9996 23.8001C33.9996 29.2001 43.7996 42.0001 43.7996 42.0001C43.7996 42.0001 53.5996 29.3001 53.5996 23.8001" fill="white"/>
</g>
</g>
<defs>
<linearGradient id="paint0_linear" x1="-58.4747" y1="59.7949" x2="59.7949" y2="178.065" gradientUnits="userSpaceOnUse">
<stop stop-color="#03C895"/>
<stop offset="1" stop-color="#0B9BD0"/>
</linearGradient>
</defs>
</svg>
