<svg width="30" height="30" viewBox="0 0 30 30" fill="none" xmlns="http://www.w3.org/2000/svg">
<path id="twitter-icon" fill-rule="evenodd" clip-rule="evenodd" d="M21.3435 11.9385C21.3503 12.0705 21.3532 12.2025 21.3532 12.3368C21.3532 16.407 18.2558 21.0998 12.5895 21.0998C10.8517 21.0998 9.23175 20.5905 7.86825 19.7168C8.10975 19.7445 8.355 19.7595 8.604 19.7595C10.0462 19.7595 11.3745 19.2668 12.429 18.4418C11.0797 18.417 9.9435 17.526 9.55125 16.302C9.7395 16.3373 9.933 16.3583 10.131 16.3583C10.4115 16.3583 10.6845 16.32 10.9425 16.248C9.53325 15.9653 8.472 14.7218 8.472 13.23V13.1903C8.8875 13.4213 9.36225 13.5593 9.867 13.575C9.04125 13.023 8.49675 12.0803 8.49675 11.0115C8.49675 10.4475 8.649 9.91875 8.9145 9.46275C10.4332 11.3273 12.702 12.5528 15.2625 12.6818C15.2092 12.4568 15.1823 12.2213 15.1823 11.9798C15.1823 10.2788 16.5615 8.90025 18.2633 8.90025C19.1483 8.90025 19.9485 9.27375 20.511 9.873C21.2115 9.73425 21.8707 9.4785 22.4662 9.12525C22.236 9.8445 21.7477 10.4475 21.1117 10.8293C21.7357 10.755 22.3275 10.5885 22.881 10.3448C22.4685 10.9613 21.945 11.505 21.3435 11.9385M14.9993 0C6.7155 0 0 6.7155 0 15C0 23.2845 6.7155 30 14.9993 30C23.2845 30 30 23.2845 30 15C30 6.7155 23.2845 0 14.9993 0" fill="white"/>
</svg>
