<svg width="31" height="30" viewBox="0 0 31 30" fill="none" xmlns="http://www.w3.org/2000/svg">
<path fill-rule="evenodd" clip-rule="evenodd" d="M15.7508 21.2798C17.8451 21.2798 19.9393 21.2795 22.0336 21.2803C22.2474 21.2804 22.4582 21.2586 22.6659 21.2081C23.8798 20.9132 24.7237 19.8394 24.7239 18.5875C24.7243 16.199 24.7239 13.8106 24.7243 11.4221C24.7243 11.2367 24.706 11.0538 24.6706 10.872C24.4296 9.6349 23.3254 8.72115 22.0618 8.72082C17.8547 8.71948 13.6474 8.7199 9.44017 8.7219C9.294 8.72198 9.146 8.73582 9.00175 8.76015C7.72625 8.97523 6.78058 10.0921 6.78 11.3843C6.77867 13.7947 6.77942 16.2051 6.77975 18.6154C6.77975 19.0692 6.88417 19.4995 7.11225 19.8907C7.63475 20.7868 8.41725 21.2708 9.45875 21.2764C11.5561 21.2878 13.6535 21.2798 15.7508 21.2798M30.7499 15C30.7593 23.2735 24.0172 30.0799 15.6007 29.9993C7.35308 29.9204 0.746418 23.2033 0.750001 14.9907C0.753585 6.71115 7.50008 -0.0900156 15.9198 0.000901052C24.1644 0.0900677 30.7567 6.80757 30.7499 15" fill="white"/>
<path fill-rule="evenodd" clip-rule="evenodd" d="M13.9655 18.0221V11.3163C13.9705 11.3136 13.9732 11.3117 13.9761 11.3108C13.9788 11.31 13.9824 11.309 13.9846 11.31C13.9985 11.317 14.0129 11.3234 14.0259 11.3319C15.7029 12.437 17.3798 13.5423 19.07 14.6563C17.3675 15.7789 15.6745 16.8953 13.9655 18.0221" fill="white"/>
</svg>
