<?xml version="1.0" encoding="UTF-8" standalone="no"?>
<svg
   xmlns:dc="http://purl.org/dc/elements/1.1/"
   xmlns:cc="http://creativecommons.org/ns#"
   xmlns:rdf="http://www.w3.org/1999/02/22-rdf-syntax-ns#"
   xmlns:svg="http://www.w3.org/2000/svg"
   xmlns="http://www.w3.org/2000/svg"
   width="553.0155mm"
   height="74.927513mm"
   viewBox="0 -30 553.0155 74.927513"
   version="1.1"
   id="svg921">
  <defs
     id="defs915">
    <clipPath
       clipPathUnits="userSpaceOnUse"
       id="clipPath84">
      <path
         d="M 0,1315.434 H 1799 V 0 H 0 Z"
         id="path82" />
    </clipPath>
  </defs>
  <metadata
     id="metadata918">
    <rdf:RDF>
      <cc:Work
         rdf:about="">
        <dc:format>image/svg+xml</dc:format>
        <dc:type
           rdf:resource="http://purl.org/dc/dcmitype/StillImage" />
        <dc:title></dc:title>
      </cc:Work>
    </rdf:RDF>
  </metadata>
  <path
     d="M 119.34502,-11.160116 60.866689,33.564273 61.652537,14.31312 21.927043,44.92751 23.542589,20.992085 -1.8091981e-7,33.391165 0.03069149,32.68688 43.579696,-9.2599142 38.472391,14.706149 78.15359,-15.939126 76.582141,2.9194561 119.31168,-30.000002 Z"
     style="opacity:1;vector-effect:none;fill:#2eab42;fill-opacity:1;fill-rule:evenodd;stroke:none;stroke-width:0.19265638;stroke-linecap:butt;stroke-linejoin:miter;stroke-miterlimit:4;stroke-dasharray:none;stroke-dashoffset:0;stroke-opacity:1"
     id="path92" />
  <path
     id="path834"
     style="fill:#ffffff;fill-opacity:1;stroke:#ffffff;stroke-width:4.05699968;stroke-linecap:round;stroke-linejoin:bevel;stroke-miterlimit:4;stroke-dasharray:none;stroke-dashoffset:0;stroke-opacity:1"
     d="m 198.61185,-19.684427 q 1.12783,0 1.85286,0.644455 0.725,0.644489 0.725,1.77232 l -0.16108,1.047256 -17.80343,51.557377 q -0.24169,0.725029 -0.88614,1.127796 -0.56388,0.402801 -1.28894,0.402801 -1.85283,0 -2.41674,-1.530597 L 164.69675,0.93853835 150.76016,35.336981 q -0.72503,1.530597 -2.41674,1.530597 -0.72503,0 -1.36952,-0.402801 -0.56391,-0.402767 -0.72499,-1.127796 l -17.80343,-51.557377 q -0.24169,-0.483376 -0.24169,-0.966717 0,-1.12783 0.80561,-1.772285 0.88614,-0.725029 1.85282,-0.725029 0.80557,0 1.45006,0.402802 0.64449,0.402766 0.88614,1.127795 l 15.78945,46.079444 13.53383,-33.7539883 q 0.72499,-1.6112066 2.25562,-1.5306322 0.80561,-0.080574 1.36949,0.4028017 0.64445,0.4028017 0.96671,1.1278305 l 13.45326,33.7539883 15.62833,-46.079444 q 0.64446,-1.530597 2.41674,-1.530597 z" />
  <path
     id="path836"
     style="fill:#ffffff;fill-opacity:1;stroke:#ffffff;stroke-width:4.05699968;stroke-linecap:round;stroke-linejoin:bevel;stroke-miterlimit:4;stroke-dasharray:none;stroke-dashoffset:0;stroke-opacity:1"
     d="m 242.67983,-4.2977774 q 1.04729,0 1.69171,0.7250289 0.72506,0.7250289 0.72506,1.772285 V 34.450839 q 0,1.047256 -0.72506,1.77225 -0.64442,0.644489 -1.69171,0.644489 -1.04726,0 -1.77229,-0.644489 -0.64449,-0.724994 -0.64449,-1.77225 V 29.05341 q -2.01393,3.625109 -6.04188,6.122423 -4.02791,2.497313 -8.78082,2.497313 -5.39746,0 -9.7476,-2.819541 -4.2696,-2.819505 -6.76691,-7.733594 -2.41674,-4.914053 -2.41674,-11.036511 0,-6.1224232 2.49731,-10.9559373 2.49732,-4.9140885 6.76692,-7.6530551 4.35013,-2.7390019 9.58645,-2.7390019 4.83348,0 8.86139,2.3362002 4.02795,2.33620027 6.04188,6.122423 v -4.9945924 q 0,-1.0472561 0.64449,-1.772285 0.72503,-0.7250289 1.77229,-0.7250289 z M 225.9237,33.161895 q 4.18902,0 7.4919,-2.175051 3.38346,-2.255662 5.23632,-6.122459 1.9334,-3.947371 1.9334,-8.780885 0,-4.672401 -1.9334,-8.5391979 -1.85286,-3.8667971 -5.23632,-6.0418485 -3.30288,-2.25566104 -7.4919,-2.25566104 -4.18906,0 -7.57249,2.17508664 -3.30291,2.1750866 -5.23631,6.0418837 -1.85282,3.7862581 -1.85282,8.6197371 0,4.833514 1.85282,8.780885 1.85282,3.866797 5.15574,6.122459 3.38346,2.175051 7.65306,2.175051 z" />
  <path
     id="path838"
     style="fill:#ffffff;fill-opacity:1;stroke:#ffffff;stroke-width:4.05699968;stroke-linecap:round;stroke-linejoin:bevel;stroke-miterlimit:4;stroke-dasharray:none;stroke-dashoffset:0;stroke-opacity:1"
     d="m 262.38141,34.450839 q 0,1.047256 -0.72503,1.77225 -0.64445,0.644489 -1.69175,0.644489 -1.04725,0 -1.77228,-0.644489 -0.64446,-0.724994 -0.64446,-1.77225 V -2.6060316 q 0,-1.0472561 0.64446,-1.6917458 0.72503,-0.7249936 1.77228,-0.7249936 1.0473,0 1.69175,0.7249936 0.72503,0.6444897 0.72503,1.6917458 z m -2.41678,-44.871075 q -1.61117,0 -2.49727,-0.724993 -0.88615,-0.805603 -0.88615,-2.255661 v -0.805568 q 0,-1.450023 0.88615,-2.175087 0.96668,-0.805568 2.57785,-0.805568 3.22231,0 3.22231,2.980655 v 0.805568 q 0,1.450058 -0.88611,2.255661 -0.80557,0.724993 -2.41678,0.724993 z" />
  <path
     id="path840"
     style="fill:#ffffff;fill-opacity:1;stroke:#ffffff;stroke-width:4.05699968;stroke-linecap:round;stroke-linejoin:bevel;stroke-miterlimit:4;stroke-dasharray:none;stroke-dashoffset:0;stroke-opacity:1"
     d="m 306.11202,-5.1033454 q 0.80561,0 1.5306,0.5639153 0.72506,0.5639152 0.72506,1.4500224 0,0.7250289 -0.32222,1.3694833 L 292.25601,35.336981 q -0.32227,0.644455 -0.96672,1.127796 -0.56392,0.402801 -1.20837,0.402801 -0.8056,0.08057 -1.45006,-0.322227 -0.64449,-0.402801 -0.96668,-1.20837 L 271.79415,-1.7199244 q 0,-0.1611136 -0.16114,-0.4833408 -0.0805,-0.3222272 -0.0805,-0.6444544 0,-0.9667169 0.64445,-1.6111714 0.64449,-0.7250288 1.85286,-0.7250288 0.72503,0 1.28894,0.4833408 0.64446,0.4028016 0.96669,1.1278305 L 290.00034,29.05341 303.77586,-3.5727485 q 0.32219,-0.7250289 0.88611,-1.1278305 0.64448,-0.4833408 1.45005,-0.4027664 z" />
  <path
     id="path842"
     style="fill:#ffffff;fill-opacity:1;stroke:#ffffff;stroke-width:4.05699968;stroke-linecap:round;stroke-linejoin:bevel;stroke-miterlimit:4;stroke-dasharray:none;stroke-dashoffset:0;stroke-opacity:1"
     d="m 351.98502,13.908413 q 0,0.966717 -0.72503,1.691746 -0.72503,0.64449 -1.69174,0.64449 h -30.45107 q 0,4.833478 1.93343,8.700311 2.01394,3.786222 5.63908,6.041884 3.70565,2.175051 8.70028,2.175051 3.86683,0 6.92806,-1.611171 3.06119,-1.611172 4.91402,-4.10845 0.88614,-0.725065 1.69174,-0.725065 0.80557,0 1.45006,0.64449 0.64449,0.644455 0.64449,1.450023 0,0.886142 -0.8056,1.691745 -2.57789,3.141769 -6.52526,5.155706 -3.86676,2.013973 -8.21694,2.013973 -6.20303,0 -10.95594,-2.658392 -4.75297,-2.658462 -7.4114,-7.411402 -2.65839,-4.833479 -2.65839,-11.117051 0,-6.6057987 2.57785,-11.5198519 2.65843,-4.99462767 7.0086,-7.5724807 4.35014,-2.6584627 9.2642,-2.6584627 4.83351,0 9.02257,2.2556611 4.26956,2.25562576 6.92799,6.605799 2.65843,4.350138 2.739,10.3114472 z M 333.29546,-0.59209383 q -4.67237,0 -8.70028,3.22237793 -3.94741,3.2223075 -5.0752,9.2641909 h 27.47041 v -0.644454 q -0.4028,-3.6251445 -2.41677,-6.2835719 -2.01394,-2.7390019 -5.07517,-4.10848519 -2.98065,-1.45005774 -6.20299,-1.45005774 z" />
  <path
     id="path844"
     style="fill:#2eab42;fill-opacity:1;stroke:#2eab42;stroke-width:4.05699968;stroke-linecap:round;stroke-linejoin:bevel;stroke-miterlimit:4;stroke-dasharray:none;stroke-dashoffset:0;stroke-opacity:1"
     d="m 428.48657,-19.684427 q 1.12784,0 1.85283,0.644455 0.72503,0.644489 0.72503,1.77232 l -0.16112,1.047256 -17.80342,51.557377 q -0.24165,0.725029 -0.88611,1.127796 -0.56391,0.402801 -1.28894,0.402801 -1.85286,0 -2.41678,-1.530597 L 394.57147,0.93853835 380.63485,35.336981 q -0.725,1.530597 -2.41674,1.530597 -0.72503,0 -1.36949,-0.402801 -0.56391,-0.402767 -0.72503,-1.127796 l -17.80342,-51.557377 q -0.24165,-0.483376 -0.24165,-0.966717 0,-1.12783 0.80556,-1.772285 0.88615,-0.725029 1.85283,-0.725029 0.8056,0 1.45009,0.402802 0.64446,0.402766 0.88614,1.127795 l 15.78946,46.079444 13.53379,-33.7539883 q 0.72506,-1.6112066 2.25566,-1.5306322 0.80556,-0.080574 1.36948,0.4028017 0.64449,0.4028017 0.96668,1.1278305 L 410.4415,27.925614 426.06984,-18.15383 q 0.64441,-1.530597 2.41673,-1.530597 z" />
  <path
     id="path846"
     style="fill:#2eab42;fill-opacity:1;stroke:#2eab42;stroke-width:4.05699968;stroke-linecap:round;stroke-linejoin:bevel;stroke-miterlimit:4;stroke-dasharray:none;stroke-dashoffset:0;stroke-opacity:1"
     d="m 476.67436,16.244649 q 0,6.041848 -2.65846,10.955901 -2.6584,4.914053 -7.3308,7.73363 -4.6724,2.738966 -10.39205,2.738966 -5.71962,0 -10.39202,-2.738966 -4.67237,-2.819577 -7.33083,-7.73363 -2.65843,-4.914053 -2.65843,-10.955901 0,-6.041884 2.65843,-10.9559727 2.65846,-4.91405321 7.33083,-7.7335943 4.6724,-2.8195763 10.39202,-2.8195763 5.71965,0 10.39205,2.8195763 4.6724,2.81954109 7.3308,7.7335943 2.65846,4.9140887 2.65846,10.9559727 z m -4.83351,0 q 0,-4.83355 -2.01394,-8.7003469 -2.01397,-3.8667971 -5.63912,-6.0418485 -3.54457,-2.25566104 -7.89474,-2.25566104 -4.35014,0 -7.89471,2.25566104 -3.54457,2.1750514 -5.63908,6.0418485 -2.01398,3.8667969 -2.01398,8.7003469 0,4.752904 2.01398,8.619736 2.09451,3.866797 5.63908,6.122459 3.54457,2.175051 7.89471,2.175051 4.35017,0 7.89474,-2.175051 3.62515,-2.175122 5.63912,-6.041884 2.01394,-3.866833 2.01394,-8.700311 z" />
  <path
     id="path848"
     style="fill:#2eab42;fill-opacity:1;stroke:#2eab42;stroke-width:4.05699968;stroke-linecap:round;stroke-linejoin:bevel;stroke-miterlimit:4;stroke-dasharray:none;stroke-dashoffset:0;stroke-opacity:1"
     d="m 505.89314,-5.2644943 q 1.61117,0 2.90012,0.6444897 1.28894,0.6444897 1.28894,1.9333986 0,1.1278305 -0.64449,1.85282411 -0.64445,0.64448971 -1.53059,0.64448971 -0.40281,0 -1.61118,-0.40280165 -1.12783,-0.40276638 -2.17508,-0.40276638 -2.98066,0 -5.96131,2.33616491 -2.90012,2.2556611 -4.83352,5.8807702 -1.85285,3.6251091 -1.85285,7.3308281 v 19.897936 q 0,1.047256 -0.725,1.77225 -0.64449,0.644489 -1.69174,0.644489 -1.04726,0 -1.77225,-0.644489 -0.64449,-0.724994 -0.64449,-1.77225 V -1.6393499 q 0,-1.0472561 0.64449,-1.6917458 0.72499,-0.7249936 1.77225,-0.7249936 1.04725,0 1.69174,0.7249936 0.725,0.6444897 0.725,1.6917458 v 7.0891398 q 1.85285,-4.59182599 5.55854,-7.5724806 3.78626,-3.0612291 8.86142,-3.1418036 z" />
  <path
     id="path850"
     style="fill:#2eab42;fill-opacity:1;stroke:#2eab42;stroke-width:4.05699968;stroke-linecap:round;stroke-linejoin:bevel;stroke-miterlimit:4;stroke-dasharray:none;stroke-dashoffset:0;stroke-opacity:1"
     d="m 550.26197,32.59798 q 0.72503,0.805603 0.72503,1.852859 0,1.047256 -0.88618,1.77225 -0.80557,0.644489 -1.5306,0.644489 -1.04725,0 -1.77228,-0.886142 l -17.80339,-18.85068 -6.04189,5.155741 v 12.164342 q 0,1.047256 -0.72506,1.77225 -0.64445,0.644489 -1.69167,0.644489 -1.0473,0 -1.77232,-0.644489 -0.64449,-0.724994 -0.64449,-1.77225 v -54.77972 q 0,-1.047256 0.64449,-1.691746 0.72502,-0.724994 1.77232,-0.724994 1.04722,0 1.69167,0.724994 0.72506,0.64449 0.72506,1.691746 v 36.734608 l 23.28136,-20.0590147 q 0.72503,-0.8056033 1.69175,-0.8056033 0.88614,0 1.61113,0.8056033 0.72507,0.7249936 0.72507,1.6111714 0,0.9666816 -0.88614,1.85282412 L 532.78077,13.908413 Z" />
</svg>
