<?xml version="1.0" encoding="UTF-8" standalone="no"?>
<svg
   xmlns:dc="http://purl.org/dc/elements/1.1/"
   xmlns:cc="http://creativecommons.org/ns#"
   xmlns:rdf="http://www.w3.org/1999/02/22-rdf-syntax-ns#"
   xmlns:svg="http://www.w3.org/2000/svg"
   xmlns="http://www.w3.org/2000/svg"
   id="svg921"
   version="1.1"
   viewBox="0 -30 553.0155 74.927513"
   height="74.927513mm"
   width="553.0155mm">
  <defs
     id="defs915">
    <clipPath
       id="clipPath84"
       clipPathUnits="userSpaceOnUse">
      <path
         id="path82"
         d="M 0,1315.434 H 1799 V 0 H 0 Z" />
    </clipPath>
  </defs>
  <metadata
     id="metadata918">
    <rdf:RDF>
      <cc:Work
         rdf:about="">
        <dc:format>image/svg+xml</dc:format>
        <dc:type
           rdf:resource="http://purl.org/dc/dcmitype/StillImage" />
        <dc:title></dc:title>
      </cc:Work>
    </rdf:RDF>
  </metadata>
  <g
     transform="translate(-79.4731,-62.536248)"
     id="layer1">
    <g
       id="g78"
       transform="matrix(0.35277777,0,0,-0.35277777,-208.43528,454.96438)">
      <g
         id="g1017">
        <path
           d="m 1154.4191,1144.0297 -165.76534,-126.7778 2.2276,54.5702 -112.6077,-86.78095 4.5795,67.84845 -66.7349,-35.147 0.087,1.9964 123.446,118.9043 -14.4774,-67.9353 112.48214,86.8685 -4.4545,-53.4574 121.1231,93.315 z"
           style="opacity:1;vector-effect:none;fill:#2eab42;fill-opacity:1;fill-rule:evenodd;stroke:none;stroke-width:0.5461126;stroke-linecap:butt;stroke-linejoin:miter;stroke-miterlimit:4;stroke-dasharray:none;stroke-dashoffset:0;stroke-opacity:1"
           id="path92" />
        <path
           id="path834"
           style="fill:#000000;fill-opacity:1;stroke:#000000;stroke-width:11.50015736;stroke-linecap:round;stroke-linejoin:bevel;stroke-miterlimit:4;stroke-dasharray:none;stroke-dashoffset:0;stroke-opacity:1"
           d="m 1379.1125,1168.1931 q 3.197,0 5.2522,-1.8268 2.0551,-1.8269 2.0551,-5.0239 l -0.4566,-2.9686 -50.4664,-146.1469 q -0.6851,-2.0552 -2.5119,-3.1969 -1.5984,-1.1418 -3.6537,-1.1418 -5.2521,0 -6.8506,4.3387 l -39.5054,97.5074 -39.5053,-97.5074 q -2.0552,-4.3387 -6.8506,-4.3387 -2.0552,0 -3.8821,1.1418 -1.5985,1.1417 -2.0551,3.1969 l -50.4664,146.1469 q -0.6851,1.3702 -0.6851,2.7403 0,3.197 2.2836,5.0238 2.5119,2.0552 5.2521,2.0552 2.2835,0 4.1104,-1.1418 1.8269,-1.1417 2.5119,-3.1969 l 44.7575,-130.6189 38.3636,95.6806 q 2.0551,4.5672 6.3939,4.3388 2.2836,0.2284 3.882,-1.1418 1.8268,-1.1418 2.7403,-3.197 l 38.1352,-95.6806 44.3008,130.6189 q 1.8268,4.3387 6.8506,4.3387 z" />
        <path
           id="path836"
           style="fill:#000000;fill-opacity:1;stroke:#000000;stroke-width:11.50015736;stroke-linecap:round;stroke-linejoin:bevel;stroke-miterlimit:4;stroke-dasharray:none;stroke-dashoffset:0;stroke-opacity:1"
           d="m 1504.0296,1124.5774 q 2.9687,0 4.7954,-2.0552 2.0553,-2.0552 2.0553,-5.0238 v -102.7596 q 0,-2.9686 -2.0553,-5.0237 -1.8267,-1.8269 -4.7954,-1.8269 -2.9686,0 -5.0238,1.8269 -1.8269,2.0551 -1.8269,5.0237 v 15.2998 q -5.7088,-10.2759 -17.1266,-17.3549 -11.4177,-7.079 -24.8905,-7.079 -15.2999,0 -27.631,7.9924 -12.1028,7.9923 -19.1818,21.922 -6.8506,13.9296 -6.8506,31.2846 0,17.3549 7.079,31.0562 7.079,13.9297 19.1818,21.6937 12.3311,7.7641 27.1742,7.7641 13.7012,0 25.1189,-6.6223 11.4178,-6.6223 17.1266,-17.3549 v 14.1579 q 0,2.9686 1.8269,5.0238 2.0552,2.0552 5.0238,2.0552 z m -47.4977,-106.1849 q 11.8744,0 21.2369,6.1655 9.5909,6.394 14.8431,17.355 5.4805,11.1894 5.4805,24.8907 0,13.2446 -5.4805,24.2056 -5.2522,10.961 -14.8431,17.1265 -9.3625,6.394 -21.2369,6.394 -11.8745,0 -21.4653,-6.1656 -9.3626,-6.1656 -14.8431,-17.1266 -5.2521,-10.7327 -5.2521,-24.4339 0,-13.7013 5.2521,-24.8907 5.2521,-10.961 14.6147,-17.355 9.5909,-6.1655 21.6937,-6.1655 z" />
        <path
           id="path838"
           style="fill:#000000;fill-opacity:1;stroke:#000000;stroke-width:11.50015736;stroke-linecap:round;stroke-linejoin:bevel;stroke-miterlimit:4;stroke-dasharray:none;stroke-dashoffset:0;stroke-opacity:1"
           d="m 1559.8766,1014.7388 q 0,-2.9686 -2.0552,-5.0237 -1.8268,-1.8269 -4.7955,-1.8269 -2.9686,0 -5.0238,1.8269 -1.8268,2.0551 -1.8268,5.0237 v 105.0431 q 0,2.9686 1.8268,4.7955 2.0552,2.0551 5.0238,2.0551 2.9687,0 4.7955,-2.0551 2.0552,-1.8269 2.0552,-4.7955 z m -6.8507,127.1936 q -4.5671,0 -7.0789,2.0551 -2.5119,2.2836 -2.5119,6.394 v 2.2835 q 0,4.1103 2.5119,6.1656 2.7402,2.2835 7.3073,2.2835 9.1341,0 9.1341,-8.4491 v -2.2835 q 0,-4.1104 -2.5118,-6.394 -2.2835,-2.0551 -6.8507,-2.0551 z" />
        <path
           id="path840"
           style="fill:#000000;fill-opacity:1;stroke:#000000;stroke-width:11.50015736;stroke-linecap:round;stroke-linejoin:bevel;stroke-miterlimit:4;stroke-dasharray:none;stroke-dashoffset:0;stroke-opacity:1"
           d="m 1683.8374,1126.8609 q 2.2836,0 4.3387,-1.5985 2.0553,-1.5985 2.0553,-4.1103 0,-2.0552 -0.9134,-3.882 l -44.7575,-105.0432 q -0.9135,-1.8268 -2.7403,-3.1969 -1.5985,-1.1418 -3.4253,-1.1418 -2.2836,-0.2284 -4.1104,0.9134 -1.8269,1.1418 -2.7402,3.4253 l -44.9859,105.0432 q 0,0.4567 -0.4568,1.3701 -0.2283,0.9134 -0.2283,1.8268 0,2.7403 1.8268,4.5671 1.8269,2.0552 5.2522,2.0552 2.0552,0 3.6537,-1.3701 1.8268,-1.1418 2.7402,-3.197 l 38.8203,-92.4836 39.0487,92.4836 q 0.9133,2.0552 2.5118,3.197 1.8269,1.3701 4.1104,1.1417 z" />
        <path
           id="path842"
           style="fill:#000000;fill-opacity:1;stroke:#000000;stroke-width:11.50015736;stroke-linecap:round;stroke-linejoin:bevel;stroke-miterlimit:4;stroke-dasharray:none;stroke-dashoffset:0;stroke-opacity:1"
           d="m 1813.8711,1072.9693 q 0,-2.7403 -2.0552,-4.7955 -2.0552,-1.8269 -4.7955,-1.8269 h -86.318 q 0,-13.7012 5.4806,-24.6623 5.7088,-10.7326 15.9848,-17.1266 10.5042,-6.1655 24.6622,-6.1655 10.9611,0 19.6386,4.5671 8.6774,4.5671 13.9295,11.646 2.5119,2.0553 4.7955,2.0553 2.2835,0 4.1104,-1.8269 1.8269,-1.8268 1.8269,-4.1103 0,-2.5119 -2.2836,-4.7955 -7.3074,-8.9058 -18.4968,-14.6146 -10.9609,-5.7089 -23.2921,-5.7089 -17.5834,0 -31.0562,7.5356 -13.473,7.5358 -21.0087,21.0087 -7.5356,13.7012 -7.5356,31.5129 0,18.7251 7.3073,32.6547 7.5357,14.158 19.8669,21.4653 12.3311,7.5358 26.2607,7.5358 13.7013,0 25.5758,-6.394 12.1027,-6.3939 19.6384,-18.7251 7.5357,-12.3311 7.7641,-29.2293 z m -52.9783,41.1038 q -13.2445,0 -24.6622,-9.1343 -11.1895,-9.1341 -14.3864,-26.2607 h 77.8689 v 1.8268 q -1.1418,10.276 -6.8507,17.8117 -5.7088,7.7641 -14.3863,11.6461 -8.4491,4.1104 -17.5833,4.1104 z" />
        <path
           id="path844"
           style="fill:#2eab42;fill-opacity:1;stroke:#2eab42;stroke-width:11.50015736;stroke-linecap:round;stroke-linejoin:bevel;stroke-miterlimit:4;stroke-dasharray:none;stroke-dashoffset:0;stroke-opacity:1"
           d="m 2030.7259,1168.1931 q 3.197,0 5.2521,-1.8268 2.0552,-1.8269 2.0552,-5.0239 l -0.4567,-2.9686 -50.4664,-146.1469 q -0.685,-2.0552 -2.5118,-3.1969 -1.5985,-1.1418 -3.6537,-1.1418 -5.2522,0 -6.8507,4.3387 l -39.5053,97.5074 -39.5054,-97.5074 q -2.0551,-4.3387 -6.8506,-4.3387 -2.0552,0 -3.882,1.1418 -1.5985,1.1417 -2.0552,3.1969 l -50.4664,146.1469 q -0.685,1.3702 -0.685,2.7403 0,3.197 2.2835,5.0238 2.5119,2.0552 5.2521,2.0552 2.2836,0 4.1105,-1.1418 1.8268,-1.1417 2.5119,-3.1969 l 44.7575,-130.6189 38.3635,95.6806 q 2.0553,4.5672 6.394,4.3388 2.2835,0.2284 3.882,-1.1418 1.8269,-1.1418 2.7402,-3.197 l 38.1353,-95.6806 44.3008,130.6189 q 1.8267,4.3387 6.8506,4.3387 z" />
        <path
           id="path846"
           style="fill:#2eab42;fill-opacity:1;stroke:#2eab42;stroke-width:11.50015736;stroke-linecap:round;stroke-linejoin:bevel;stroke-miterlimit:4;stroke-dasharray:none;stroke-dashoffset:0;stroke-opacity:1"
           d="m 2167.3212,1066.3469 q 0,-17.1265 -7.5358,-31.0561 -7.5356,-13.9296 -20.7802,-21.9221 -13.2446,-7.764 -29.4578,-7.764 -16.2131,0 -29.4577,7.764 -13.2445,7.9925 -20.7803,21.9221 -7.5357,13.9296 -7.5357,31.0561 0,17.1266 7.5357,31.0563 7.5358,13.9296 20.7803,21.922 13.2446,7.9925 29.4577,7.9925 16.2132,0 29.4578,-7.9925 13.2446,-7.9924 20.7802,-21.922 7.5358,-13.9297 7.5358,-31.0563 z m -13.7013,0 q 0,13.7014 -5.7088,24.6624 -5.7089,10.961 -15.9849,17.1265 -10.0476,6.394 -22.3788,6.394 -12.3311,0 -22.3787,-6.394 -10.0476,-6.1655 -15.9848,-17.1265 -5.7089,-10.961 -5.7089,-24.6624 0,-13.4728 5.7089,-24.4339 5.9372,-10.961 15.9848,-17.355 10.0476,-6.1655 22.3787,-6.1655 12.3312,0 22.3788,6.1655 10.276,6.1657 15.9849,17.1266 5.7088,10.9611 5.7088,24.6623 z" />
        <path
           id="path848"
           style="fill:#2eab42;fill-opacity:1;stroke:#2eab42;stroke-width:11.50015736;stroke-linecap:round;stroke-linejoin:bevel;stroke-miterlimit:4;stroke-dasharray:none;stroke-dashoffset:0;stroke-opacity:1"
           d="m 2250.1461,1127.3177 q 4.5671,0 8.2208,-1.8269 3.6537,-1.8269 3.6537,-5.4805 0,-3.197 -1.8269,-5.2521 -1.8268,-1.8269 -4.3387,-1.8269 -1.1418,0 -4.5671,1.1418 -3.197,1.1417 -6.1656,1.1417 -8.4491,0 -16.8982,-6.6222 -8.2208,-6.394 -13.7013,-16.6699 -5.2522,-10.2759 -5.2522,-20.7803 v -56.4036 q 0,-2.9686 -2.0551,-5.0237 -1.8269,-1.8269 -4.7955,-1.8269 -2.9686,0 -5.0237,1.8269 -1.8269,2.0551 -1.8269,5.0237 v 102.3029 q 0,2.9686 1.8269,4.7955 2.0551,2.0551 5.0237,2.0551 2.9686,0 4.7955,-2.0551 2.0551,-1.8269 2.0551,-4.7955 v -20.0952 q 5.2522,13.0162 15.7565,21.4653 10.7327,8.6775 25.119,8.9059 z" />
        <path
           id="path850"
           style="fill:#2eab42;fill-opacity:1;stroke:#2eab42;stroke-width:11.50015736;stroke-linecap:round;stroke-linejoin:bevel;stroke-miterlimit:4;stroke-dasharray:none;stroke-dashoffset:0;stroke-opacity:1"
           d="m 2375.916,1019.991 q 2.0552,-2.2836 2.0552,-5.2522 0,-2.9686 -2.512,-5.0237 -2.2835,-1.8269 -4.3387,-1.8269 -2.9686,0 -5.0238,2.5119 l -50.4663,53.435 -17.1266,-14.6147 v -34.4816 q 0,-2.9686 -2.0553,-5.0237 -1.8268,-1.8269 -4.7953,-1.8269 -2.9687,0 -5.0239,1.8269 -1.8269,2.0551 -1.8269,5.0237 v 155.2811 q 0,2.9686 1.8269,4.7955 2.0552,2.0551 5.0239,2.0551 2.9685,0 4.7953,-2.0551 2.0553,-1.8269 2.0553,-4.7955 v -104.1296 l 65.9944,56.8602 q 2.0552,2.2836 4.7955,2.2836 2.5119,0 4.567,-2.2836 2.0553,-2.0551 2.0553,-4.5671 0,-2.7402 -2.5119,-5.2521 l -47.0411,-39.962 z" />
      </g>
    </g>
  </g>
</svg>
